<svg width="256" height="256" version="1.1" xmlns="http://www.w3.org/2000/svg" desc="Created with imagetracer.js version 1.2.6" ><path fill="rgb(31,148,241)" stroke="rgb(31,148,241)" stroke-width="1" opacity="0.9019607843137255" d="M 131.5 0 L 135 0.5 L 131.5 1 L 131.5 0 Z " /><path fill="rgb(31,148,241)" stroke="rgb(31,148,241)" stroke-width="1" opacity="0.9019607843137255" d="M 126.5 1 L 130 1.5 L 126.5 2 L 126.5 1 Z " /><path fill="rgb(31,148,241)" stroke="rgb(31,148,241)" stroke-width="1" opacity="0.9019607843137255" d="M 140.5 1 L 142.5 4 L 140.5 1 Z " /><path fill="rgb(31,148,241)" stroke="rgb(31,148,241)" stroke-width="1" opacity="0.9019607843137255" d="M 121.5 2 L 125 2.5 L 121.5 3 L 121.5 2 Z " /><path fill="rgb(31,148,241)" stroke="rgb(31,148,241)" stroke-width="1" opacity="0.9019607843137255" d="M 115.5 3 L 120 3.5 L 115.5 4 L 115.5 3 Z " /><path fill="rgb(31,148,241)" stroke="rgb(31,148,241)" stroke-width="1" opacity="0.9019607843137255" d="M 110.5 4 L 114 4.5 L 110.5 5 L 110.5 4 Z " /><path fill="rgb(31,148,241)" stroke="rgb(31,148,241)" stroke-width="1" opacity="0.9019607843137255" d="M 105.5 5 L 109 5.5 L 105.5 6 L 105.5 5 Z " /><path fill="rgb(31,148,241)" stroke="rgb(31,148,241)" stroke-width="1" opacity="0.9019607843137255" d="M 143.5 5 L 144 47.5 L 143 47.5 L 143.5 5 Z " /><path fill="rgb(31,148,241)" stroke="rgb(31,148,241)" stroke-width="1" opacity="0.9019607843137255" d="M 99.5 6 L 104 6.5 L 99.5 7 L 99.5 6 Z " /><path fill="rgb(31,148,241)" stroke="rgb(31,148,241)" stroke-width="1" opacity="0.9019607843137255" d="M 94.5 7 L 98 7.5 L 94.5 8 L 94.5 7 Z " /><path fill="rgb(31,148,241)" stroke="rgb(31,148,241)" stroke-width="1" opacity="0.9019607843137255" d="M 89.5 8 L 93 8.5 L 89.5 9 L 89.5 8 Z " /><path fill="rgb(31,148,241)" stroke="rgb(31,148,241)" stroke-width="1" opacity="0.9019607843137255" d="M 83.5 9 L 88 9.5 L 83.5 10 L 83.5 9 Z " /><path fill="rgb(31,148,241)" stroke="rgb(31,148,241)" stroke-width="1" opacity="0.9019607843137255" d="M 78.5 10 L 82 10.5 L 78.5 11 L 78.5 10 Z " /><path fill="rgb(31,148,241)" stroke="rgb(31,148,241)" stroke-width="1" opacity="0.9019607843137255" d="M 73.5 11 L 77 11.5 L 73.5 12 L 73.5 11 Z " /><path fill="rgb(31,148,241)" stroke="rgb(31,148,241)" stroke-width="1" opacity="0.9019607843137255" d="M 67.5 12 L 72 12.5 L 67.5 13 L 67.5 12 Z " /><path fill="rgb(31,148,241)" stroke="rgb(31,148,241)" stroke-width="1" opacity="0.9019607843137255" d="M 62.5 13 L 66 13.5 L 62.5 14 L 62.5 13 Z " /><path fill="rgb(31,148,241)" stroke="rgb(31,148,241)" stroke-width="1" opacity="0.9019607843137255" d="M 57.5 14 L 61 14.5 L 57.5 15 L 57.5 14 Z " /><path fill="rgb(31,148,241)" stroke="rgb(31,148,241)" stroke-width="1" opacity="0.9019607843137255" d="M 51.5 15 L 56 15.5 L 51.5 16 L 51.5 15 Z " /><path fill="rgb(31,148,241)" stroke="rgb(31,148,241)" stroke-width="1" opacity="0.9019607843137255" d="M 46.5 16 L 50 16.5 L 46.5 17 L 46.5 16 Z " /><path fill="rgb(31,148,241)" stroke="rgb(31,148,241)" stroke-width="1" opacity="0.9019607843137255" d="M 41.5 17 L 45 17.5 L 41.5 18 L 41.5 17 Z " /><path fill="rgb(31,148,241)" stroke="rgb(31,148,241)" stroke-width="1" opacity="0.9019607843137255" d="M 35.5 18 L 40 18.5 L 35.5 19 L 35.5 18 Z " /><path fill="rgb(31,148,241)" stroke="rgb(31,148,241)" stroke-width="1" opacity="0.9019607843137255" d="M 30.5 19 L 34 19.5 L 30.5 20 L 30.5 19 Z " /><path fill="rgb(31,148,241)" stroke="rgb(31,148,241)" stroke-width="1" opacity="0.9019607843137255" d="M 25.5 20 L 29 20.5 L 25.5 21 L 25.5 20 Z " /><path fill="rgb(31,148,241)" stroke="rgb(31,148,241)" stroke-width="1" opacity="0.9019607843137255" d="M 19.5 21 L 24 21.5 L 19.5 22 L 19.5 21 Z " /><path fill="rgb(31,148,241)" stroke="rgb(31,148,241)" stroke-width="1" opacity="0.9019607843137255" d="M 14.5 22 L 18 22.5 L 14.5 23 L 14.5 22 Z " /><path fill="rgb(31,148,241)" stroke="rgb(31,148,241)" stroke-width="1" opacity="0.9019607843137255" d="M 9.5 23 L 13 23.5 L 9.5 24 L 9.5 23 Z " /><path fill="rgb(31,148,241)" stroke="rgb(31,148,241)" stroke-width="1" opacity="0.9019607843137255" d="M 3.5 25 L 1.5 28 L 3.5 25 Z " /><path fill="rgb(31,148,241)" stroke="rgb(31,148,241)" stroke-width="1" opacity="0.9019607843137255" d="M 143.5 64 L 144 81.5 L 143 81.5 L 143.5 64 Z " /><path fill="rgb(31,148,241)" stroke="rgb(31,148,241)" stroke-width="1" opacity="0.9019607843137255" d="M 143.5 101 L 144 175.5 L 143 175.5 L 143.5 101 Z " /><path fill="rgb(31,148,241)" stroke="rgb(31,148,241)" stroke-width="1" opacity="0.9019607843137255" d="M 143.5 192 L 144 234.5 L 143 234.5 L 143.5 192 Z " /><path fill="rgb(31,148,241)" stroke="rgb(31,148,241)" stroke-width="1" opacity="0.9019607843137255" d="M 1.5 212 L 3.5 215 L 1.5 212 Z " /><path fill="rgb(31,148,241)" stroke="rgb(31,148,241)" stroke-width="1" opacity="0.9019607843137255" d="M 9.5 216 L 13 216.5 L 9.5 217 L 9.5 216 Z " /><path fill="rgb(31,148,241)" stroke="rgb(31,148,241)" stroke-width="1" opacity="0.9019607843137255" d="M 14.5 217 L 18 217.5 L 14.5 218 L 14.5 217 Z " /><path fill="rgb(31,148,241)" stroke="rgb(31,148,241)" stroke-width="1" opacity="0.9019607843137255" d="M 19.5 218 L 24 218.5 L 19.5 219 L 19.5 218 Z " /><path fill="rgb(31,148,241)" stroke="rgb(31,148,241)" stroke-width="1" opacity="0.9019607843137255" d="M 25.5 219 L 29 219.5 L 25.5 220 L 25.5 219 Z " /><path fill="rgb(31,148,241)" stroke="rgb(31,148,241)" stroke-width="1" opacity="0.9019607843137255" d="M 30.5 220 L 34 220.5 L 30.5 221 L 30.5 220 Z " /><path fill="rgb(31,148,241)" stroke="rgb(31,148,241)" stroke-width="1" opacity="0.9019607843137255" d="M 35.5 221 L 40 221.5 L 35.5 222 L 35.5 221 Z " /><path fill="rgb(31,148,241)" stroke="rgb(31,148,241)" stroke-width="1" opacity="0.9019607843137255" d="M 41.5 222 L 45 222.5 L 41.5 223 L 41.5 222 Z " /><path fill="rgb(31,148,241)" stroke="rgb(31,148,241)" stroke-width="1" opacity="0.9019607843137255" d="M 46.5 223 L 50 223.5 L 46.5 224 L 46.5 223 Z " /><path fill="rgb(31,148,241)" stroke="rgb(31,148,241)" stroke-width="1" opacity="0.9019607843137255" d="M 51.5 224 L 56 224.5 L 51.5 225 L 51.5 224 Z " /><path fill="rgb(31,148,241)" stroke="rgb(31,148,241)" stroke-width="1" opacity="0.9019607843137255" d="M 57.5 225 L 61 225.5 L 57.5 226 L 57.5 225 Z " /><path fill="rgb(31,148,241)" stroke="rgb(31,148,241)" stroke-width="1" opacity="0.9019607843137255" d="M 62.5 226 L 66 226.5 L 62.5 227 L 62.5 226 Z " /><path fill="rgb(31,148,241)" stroke="rgb(31,148,241)" stroke-width="1" opacity="0.9019607843137255" d="M 67.5 227 L 72 227.5 L 67.5 228 L 67.5 227 Z " /><path fill="rgb(31,148,241)" stroke="rgb(31,148,241)" stroke-width="1" opacity="0.9019607843137255" d="M 73.5 228 L 77 228.5 L 73.5 229 L 73.5 228 Z " /><path fill="rgb(31,148,241)" stroke="rgb(31,148,241)" stroke-width="1" opacity="0.9019607843137255" d="M 78.5 229 L 82 229.5 L 78.5 230 L 78.5 229 Z " /><path fill="rgb(31,148,241)" stroke="rgb(31,148,241)" stroke-width="1" opacity="0.9019607843137255" d="M 83.5 230 L 88 230.5 L 83.5 231 L 83.5 230 Z " /><path fill="rgb(31,148,241)" stroke="rgb(31,148,241)" stroke-width="1" opacity="0.9019607843137255" d="M 89.5 231 L 93 231.5 L 89.5 232 L 89.5 231 Z " /><path fill="rgb(31,148,241)" stroke="rgb(31,148,241)" stroke-width="1" opacity="0.9019607843137255" d="M 94.5 232 L 98 232.5 L 94.5 233 L 94.5 232 Z " /><path fill="rgb(31,148,241)" stroke="rgb(31,148,241)" stroke-width="1" opacity="0.9019607843137255" d="M 99.5 233 L 104 233.5 L 99.5 234 L 99.5 233 Z " /><path fill="rgb(31,148,241)" stroke="rgb(31,148,241)" stroke-width="1" opacity="0.9019607843137255" d="M 105.5 234 L 109 234.5 L 105.5 235 L 105.5 234 Z " /><path fill="rgb(31,148,241)" stroke="rgb(31,148,241)" stroke-width="1" opacity="0.9019607843137255" d="M 110.5 235 L 114 235.5 L 110.5 236 L 110.5 235 Z " /><path fill="rgb(31,148,241)" stroke="rgb(31,148,241)" stroke-width="1" opacity="0.9019607843137255" d="M 115.5 236 L 120 236.5 L 115.5 237 L 115.5 236 Z " /><path fill="rgb(31,148,241)" stroke="rgb(31,148,241)" stroke-width="1" opacity="0.9019607843137255" d="M 142.5 236 L 140.5 239 L 142.5 236 Z " /><path fill="rgb(31,148,241)" stroke="rgb(31,148,241)" stroke-width="1" opacity="0.9019607843137255" d="M 121.5 237 L 125 237.5 L 121.5 238 L 121.5 237 Z " /><path fill="rgb(31,148,241)" stroke="rgb(31,148,241)" stroke-width="1" opacity="0.9019607843137255" d="M 126.5 238 L 130 238.5 L 126.5 239 L 126.5 238 Z " /><path fill="rgb(31,148,241)" stroke="rgb(31,148,241)" stroke-width="1" opacity="0.9019607843137255" d="M 131.5 239 L 139 239.5 L 131.5 240 L 131.5 239 Z " /><path fill="rgb(23,116,209)" stroke="rgb(23,116,209)" stroke-width="1" opacity="0.9058823529411765" d="M 145.5 48 L 251 48.5 L 145.5 49 L 145.5 48 Z " /><path fill="rgb(23,116,209)" stroke="rgb(23,116,209)" stroke-width="1" opacity="0.9058823529411765" d="M 252.5 49 L 254.5 52 L 252.5 49 Z " /><path fill="rgb(23,116,209)" stroke="rgb(23,116,209)" stroke-width="1" opacity="0.9058823529411765" d="M 145.5 63 L 222 63.5 L 145.5 64 L 145.5 63 Z " /><path fill="rgb(23,116,209)" stroke="rgb(23,116,209)" stroke-width="1" opacity="0.9058823529411765" d="M 223.5 63 Q 225.8 62.3 225 64.5 L 223 65.5 L 223.5 63 Z " /><path fill="rgb(23,116,209)" stroke="rgb(23,116,209)" stroke-width="1" opacity="0.9058823529411765" d="M 221.5 66 L 219.5 69 L 221.5 66 Z " /><path fill="rgb(23,116,209)" stroke="rgb(23,116,209)" stroke-width="1" opacity="0.9058823529411765" d="M 217.5 69 L 214.5 73 L 217.5 69 Z " /><path fill="rgb(23,116,209)" stroke="rgb(23,116,209)" stroke-width="1" opacity="0.9058823529411765" d="M 239.5 72 L 241 72.5 L 241 175.5 L 240 175.5 L 239.5 73 L 238 73.5 L 239.5 72 Z " /><path fill="rgb(23,116,209)" stroke="rgb(23,116,209)" stroke-width="1" opacity="0.9058823529411765" d="M 212.5 73 L 210.5 76 L 212.5 73 Z " /><path fill="rgb(23,116,209)" stroke="rgb(23,116,209)" stroke-width="1" opacity="0.9058823529411765" d="M 236.5 74 L 233.5 78 L 236.5 74 Z " /><path fill="rgb(23,116,209)" stroke="rgb(23,116,209)" stroke-width="1" opacity="0.9058823529411765" d="M 208.5 76 L 205.5 80 L 208.5 76 Z " /><path fill="rgb(23,116,209)" stroke="rgb(23,116,209)" stroke-width="1" opacity="0.9058823529411765" d="M 231.5 78 L 229.5 81 L 231.5 78 Z " /><path fill="rgb(23,116,209)" stroke="rgb(23,116,209)" stroke-width="1" opacity="0.9058823529411765" d="M 203.5 80 L 201.5 83 L 203.5 80 Z " /><path fill="rgb(23,116,209)" stroke="rgb(23,116,209)" stroke-width="1" opacity="0.9058823529411765" d="M 227.5 81 L 224.5 85 L 227.5 81 Z " /><path fill="rgb(23,116,209)" stroke="rgb(23,116,209)" stroke-width="1" opacity="0.9058823529411765" d="M 144.5 82 L 145.5 84 L 144.5 82 Z " /><path fill="rgb(23,116,209)" stroke="rgb(23,116,209)" stroke-width="1" opacity="0.9058823529411765" d="M 199.5 83 L 196.5 87 L 199.5 83 Z " /><path fill="rgb(23,116,209)" stroke="rgb(23,116,209)" stroke-width="1" opacity="0.9058823529411765" d="M 147.5 84 L 148.5 86 L 147.5 84 Z " /><path fill="rgb(23,116,209)" stroke="rgb(23,116,209)" stroke-width="1" opacity="0.9058823529411765" d="M 222.5 85 L 220.5 88 L 222.5 85 Z " /><path fill="rgb(23,116,209)" stroke="rgb(23,116,209)" stroke-width="1" opacity="0.9058823529411765" d="M 150.5 86 L 154 88.5 L 152.5 88 L 150.5 86 Z " /><path fill="rgb(23,116,209)" stroke="rgb(23,116,209)" stroke-width="1" opacity="0.9058823529411765" d="M 194.5 87 L 192.5 90 L 194.5 87 Z " /><path fill="rgb(23,116,209)" stroke="rgb(23,116,209)" stroke-width="1" opacity="0.9058823529411765" d="M 218.5 88 L 215.5 92 L 218.5 88 Z " /><path fill="rgb(23,116,209)" stroke="rgb(23,116,209)" stroke-width="1" opacity="0.9058823529411765" d="M 155.5 89 L 156.5 91 L 155.5 89 Z " /><path fill="rgb(23,116,209)" stroke="rgb(23,116,209)" stroke-width="1" opacity="0.9058823529411765" d="M 190.5 90 L 187.5 94 L 190.5 90 Z " /><path fill="rgb(23,116,209)" stroke="rgb(23,116,209)" stroke-width="1" opacity="0.9058823529411765" d="M 158.5 91 L 159.5 93 L 158.5 91 Z " /><path fill="rgb(23,116,209)" stroke="rgb(23,116,209)" stroke-width="1" opacity="0.9058823529411765" d="M 213.5 92 L 211.5 95 L 213.5 92 Z " /><path fill="rgb(23,116,209)" stroke="rgb(23,116,209)" stroke-width="1" opacity="0.9058823529411765" d="M 161.5 93 L 165 95.5 L 163.5 95 L 161.5 93 Z " /><path fill="rgb(23,116,209)" stroke="rgb(23,116,209)" stroke-width="1" opacity="0.9058823529411765" d="M 185.5 94 L 183.5 97 L 185.5 94 Z " /><path fill="rgb(23,116,209)" stroke="rgb(23,116,209)" stroke-width="1" opacity="0.9058823529411765" d="M 209.5 95 L 206.5 99 L 209.5 95 Z " /><path fill="rgb(23,116,209)" stroke="rgb(23,116,209)" stroke-width="1" opacity="0.9058823529411765" d="M 166.5 96 L 167.5 98 L 166.5 96 Z " /><path fill="rgb(23,116,209)" stroke="rgb(23,116,209)" stroke-width="1" opacity="0.9058823529411765" d="M 181.5 97 L 178.5 101 L 181.5 97 Z " /><path fill="rgb(23,116,209)" stroke="rgb(23,116,209)" stroke-width="1" opacity="0.9058823529411765" d="M 169.5 98 L 170.5 100 L 169.5 98 Z " /><path fill="rgb(23,116,209)" stroke="rgb(23,116,209)" stroke-width="1" opacity="0.9058823529411765" d="M 204.5 99 L 202.5 102 L 204.5 99 Z " /><path fill="rgb(23,116,209)" stroke="rgb(23,116,209)" stroke-width="1" opacity="0.9058823529411765" d="M 144.5 101 L 147 102.5 L 145.5 102 L 144.5 101 Z " /><path fill="rgb(23,116,209)" stroke="rgb(23,116,209)" stroke-width="1" opacity="0.9058823529411765" d="M 174.5 101 L 177 101.5 Q 174.9 104.8 174.5 101 Z " /><path fill="rgb(23,116,209)" stroke="rgb(23,116,209)" stroke-width="1" opacity="0.9058823529411765" d="M 200.5 102 L 197.5 106 L 200.5 102 Z " /><path fill="rgb(23,116,209)" stroke="rgb(23,116,209)" stroke-width="1" opacity="0.9058823529411765" d="M 148.5 103 L 149.5 105 L 148.5 103 Z " /><path fill="rgb(23,116,209)" stroke="rgb(23,116,209)" stroke-width="1" opacity="0.9058823529411765" d="M 151.5 105 L 152.5 107 L 151.5 105 Z " /><path fill="rgb(23,116,209)" stroke="rgb(23,116,209)" stroke-width="1" opacity="0.9058823529411765" d="M 195.5 106 L 193.5 109 L 195.5 106 Z " /><path fill="rgb(23,116,209)" stroke="rgb(23,116,209)" stroke-width="1" opacity="0.9058823529411765" d="M 154.5 107 L 158 109.5 L 156.5 109 L 154.5 107 Z " /><path fill="rgb(23,116,209)" stroke="rgb(23,116,209)" stroke-width="1" opacity="0.9058823529411765" d="M 191.5 109 L 188.5 113 L 191.5 109 Z " /><path fill="rgb(23,116,209)" stroke="rgb(23,116,209)" stroke-width="1" opacity="0.9058823529411765" d="M 159.5 110 L 160.5 112 L 159.5 110 Z " /><path fill="rgb(23,116,209)" stroke="rgb(23,116,209)" stroke-width="1" opacity="0.9058823529411765" d="M 162.5 112 L 163.5 114 L 162.5 112 Z " /><path fill="rgb(23,116,209)" stroke="rgb(23,116,209)" stroke-width="1" opacity="0.9058823529411765" d="M 186.5 113 L 184.5 116 L 186.5 113 Z " /><path fill="rgb(23,116,209)" stroke="rgb(23,116,209)" stroke-width="1" opacity="0.9058823529411765" d="M 165.5 114 L 169 116.5 L 167.5 116 L 165.5 114 Z " /><path fill="rgb(23,116,209)" stroke="rgb(23,116,209)" stroke-width="1" opacity="0.9058823529411765" d="M 182.5 116 L 180.5 119 L 182.5 116 Z " /><path fill="rgb(23,116,209)" stroke="rgb(23,116,209)" stroke-width="1" opacity="0.9058823529411765" d="M 170.5 117 L 171.5 119 L 170.5 117 Z " /><path fill="rgb(23,116,209)" stroke="rgb(23,116,209)" stroke-width="1" opacity="0.9058823529411765" d="M 173.5 119 L 179 119.5 L 173.5 120 L 173.5 119 Z " /><path fill="rgb(23,116,209)" stroke="rgb(23,116,209)" stroke-width="1" opacity="0.9058823529411765" d="M 145.5 176 L 239 176.5 L 145.5 177 L 145.5 176 Z " /><path fill="rgb(23,116,209)" stroke="rgb(23,116,209)" stroke-width="1" opacity="0.9058823529411765" d="M 254.5 188 L 252.5 191 L 254.5 188 Z " /><path fill="rgb(23,116,209)" stroke="rgb(23,116,209)" stroke-width="1" opacity="0.9058823529411765" d="M 145.5 191 L 251 191.5 L 145.5 192 L 145.5 191 Z " /><path fill="rgb(24,118,210)" stroke="rgb(24,118,210)" stroke-width="1" opacity="0.996078431372549" d="M 251.5 49 L 253.5 52 L 255 52.5 L 253.5 55 L 250.5 51 L 144 50.5 L 250.5 50 L 251.5 49 Z " /><path fill="rgb(24,118,210)" stroke="rgb(24,118,210)" stroke-width="1" opacity="0.996078431372549" d="M 144.5 61 L 224 61.5 L 144.5 62 L 144.5 61 Z " /><path fill="rgb(24,118,210)" stroke="rgb(24,118,210)" stroke-width="1" opacity="0.996078431372549" d="M 226.5 64 L 222.5 69 L 175.5 105 L 144 84.5 L 147 84.5 Q 146.3 86.8 148.5 86 L 153.5 90 L 155 89.5 L 156.5 92 L 158 91.5 Q 157.3 93.8 159.5 93 L 164.5 97 L 166 96.5 L 167.5 99 L 169 98.5 Q 168.3 100.8 170.5 100 L 175 102.5 L 175.5 104 L 176 102 L 182 98.5 L 182.5 97 L 183.5 98 L 187.5 94 L 191 91.5 L 191.5 90 L 192.5 91 L 196.5 87 L 200 84.5 L 200.5 83 L 201.5 84 L 205.5 80 L 209 77.5 L 209.5 76 L 210.5 77 L 214.5 73 L 218 70.5 L 218.5 69 L 219.5 70 L 222.5 67 L 226.5 64 Z " /><path fill="rgb(24,118,210)" stroke="rgb(24,118,210)" stroke-width="1" opacity="0.996078431372549" d="M 239.5 70 L 236.5 74 L 233 76.5 L 232.5 78 L 231.5 77 L 227.5 81 L 224 83.5 L 223.5 85 L 222.5 84 L 218.5 88 L 215 90.5 L 214.5 92 L 213.5 91 L 209.5 95 L 206 97.5 L 205.5 99 L 204.5 98 L 200.5 102 L 197 104.5 L 196.5 106 L 195.5 105 L 191.5 109 L 188 111.5 L 187.5 113 L 186.5 112 L 182.5 116 L 179.5 118 Q 174 116.5 172.5 119 L 172 117 L 165.5 113 L 164 113.5 L 162.5 111 L 161 111.5 Q 161.8 109.3 159.5 110 L 154.5 106 L 153 106.5 L 151.5 104 L 144 99.5 L 145.5 99 L 169.5 115 Q 172.2 117.8 178.5 117 L 239.5 70 Z " /><path fill="rgb(24,118,210)" stroke="rgb(24,118,210)" stroke-width="1" opacity="0.996078431372549" d="M 242.5 73 L 243 175.5 L 242 175.5 L 242.5 73 Z " /><path fill="rgb(24,118,210)" stroke="rgb(24,118,210)" stroke-width="1" opacity="0.996078431372549" d="M 144.5 178 L 240 178.5 L 144.5 179 L 144.5 178 Z " /><path fill="rgb(24,118,210)" stroke="rgb(24,118,210)" stroke-width="1" opacity="0.996078431372549" d="M 253.5 185 L 255 187.5 L 252 189.5 L 251.5 191 L 250.5 190 L 144 189.5 L 250.5 189 L 253 186.5 L 253.5 185 Z " /><path fill="rgb(33,150,243)" stroke="rgb(33,150,243)" stroke-width="1" opacity="1" d="M 135.5 0 Q 141.1 0.4 143 4.5 L 143 47.5 L 144 48.5 L 144 63.5 L 143 64.5 L 143 81.5 L 144 82.5 L 144 100.5 L 143 101.5 L 143 175.5 L 144 176.5 L 144 191.5 L 143 192.5 L 143 235.5 L 139.5 239 L 130.5 239 L 23.5 218 L 7.5 216 L 1 211.5 L 0 208.5 L 0 31.5 L 4.5 25 L 34.5 19 L 39.5 19 L 50.5 16 L 55.5 16 L 66.5 13 L 71.5 13 L 82.5 10 L 87.5 10 L 98.5 7 L 103.5 7 L 114.5 4 L 119.5 4 L 135.5 0 Z M 67 80 Q 57 82 51 87 Q 36 98 32 121 L 32 136 L 34 145 L 43 162 Q 51 172 67 176 Q 85 177 94 169 Q 108 158 112 136 L 112 121 L 110 112 L 101 95 Q 95 86 85 82 L 78 80 L 67 80 Z " /><path fill="rgb(33,150,243)" stroke="rgb(33,150,243)" stroke-width="1" opacity="1" d="M 68.5 96 L 78.5 97 Q 86 100 90 106.5 Q 97.2 115.8 96 133.5 Q 93.5 149.5 82.5 157 Q 78.1 161.1 68.5 160 Q 58.7 157.3 54 149.5 Q 46.8 140.2 48 122.5 Q 50.5 106.5 61.5 99 L 68.5 96 Z " /><path fill="rgb(25,118,210)" stroke="rgb(25,118,210)" stroke-width="1" opacity="1" d="M 144.5 49 L 251 49.5 L 144.5 50 L 144.5 49 Z " /><path fill="rgb(25,118,210)" stroke="rgb(25,118,210)" stroke-width="1" opacity="1" d="M 252.5 50 L 253.5 52 L 252.5 50 Z " /><path fill="rgb(25,118,210)" stroke="rgb(25,118,210)" stroke-width="1" opacity="1" d="M 144 51 L 250.5 51 L 253 53.5 L 253.5 55 L 254.5 53 L 256 56.5 L 256 183.5 L 254.5 187 L 253.5 185 L 250.5 189 L 144.5 189 L 144 188.5 L 144 179 L 240 178.5 L 144 177.5 L 241 177 L 241 72.5 L 239.5 72 L 237 73.5 L 238.5 71 L 235 73.5 Q 237.7 75.3 233.5 77 L 233.5 75 L 231 76.5 L 232 77.5 L 228.5 81 L 229.5 78 L 226 80.5 Q 228.8 82.3 224.5 84 L 224.5 82 L 222 83.5 L 223 84.5 L 219.5 88 L 220.5 85 L 217 87.5 Q 219.7 89.2 215.5 91 L 215.5 89 L 213 90.5 L 214 91.5 L 210.5 95 L 211.5 92 L 208 94.5 Q 210.7 96.3 206.5 98 L 206.5 96 L 204 97.5 L 205 98.5 L 201.5 102 L 202.5 99 L 199 101.5 Q 201.7 103.3 197.5 105 L 197.5 103 L 195 104.5 L 196 105.5 L 192.5 109 L 193.5 106 L 190 108.5 Q 192.8 110.3 188.5 112 L 188.5 110 L 186 111.5 L 187 112.5 L 183.5 116 L 184.5 113 L 181 115.5 Q 183.8 117.3 179.5 119 L 173 118.5 L 179.5 118 L 181 116.5 L 179.5 116 Q 178.3 118.2 173.5 117 L 169.5 115 L 169.5 117 L 167.5 113 L 166 113.5 L 166.5 115 L 164.5 111 L 163 111.5 L 163.5 113 L 161.5 109 L 158.5 108 L 158.5 110 L 156.5 106 L 155 106.5 L 155.5 108 L 153.5 104 L 152 104.5 L 152.5 106 L 149 103.5 L 150.5 104 L 152 103.5 L 147.5 101 L 147.5 103 L 145.5 99 L 144 98.5 L 144 85.5 L 144.5 83 L 146.5 87 L 149.5 88 L 149.5 86 L 151.5 90 L 153 89.5 L 152.5 88 L 154.5 92 L 156 91.5 L 155.5 90 L 157.5 94 L 160.5 95 L 160.5 93 L 162.5 97 L 164 96.5 L 163.5 95 L 165.5 99 L 167 98.5 L 166.5 97 L 168.5 101 L 171.5 102 L 171.5 100 Q 175.2 102 173.5 104 L 175.5 103 L 177.5 104 L 181.5 98 L 181.5 100 L 184 98.5 L 183 97.5 L 186.5 94 L 185.5 97 L 189 94.5 Q 186.2 92.7 190.5 91 L 190.5 93 L 193 91.5 L 192 90.5 L 195.5 87 L 194.5 90 L 198 87.5 Q 195.3 85.8 199.5 84 L 199.5 86 L 202 84.5 L 201 83.5 L 204.5 80 L 203.5 83 L 207 80.5 Q 204.3 78.8 208.5 77 L 208.5 79 L 211 77.5 L 210 76.5 L 213.5 73 L 212.5 76 L 216 73.5 Q 213.3 71.8 217.5 70 L 217.5 72 L 220 70.5 L 219 69.5 L 222.5 66 L 225 64.5 L 224.5 63 L 144.5 63 L 144.5 62 L 224 61.5 L 144 61 L 144 51 Z M 223 67 L 222 69 L 224 68 L 223 67 Z M 243 73 L 242 176 L 243 176 L 243 73 Z " /><path fill="rgb(25,118,210)" stroke="rgb(25,118,210)" stroke-width="1" opacity="1" d="M 253.5 188 L 252.5 190 L 253.5 188 Z " /><path fill="rgb(25,118,210)" stroke="rgb(25,118,210)" stroke-width="1" opacity="1" d="M 144.5 190 L 251 190.5 L 144.5 191 L 144.5 190 Z " /><path fill="rgb(4,91,224)" stroke="rgb(4,91,224)" stroke-width="1" opacity="0.03529411764705882" d="M 118.5 0 L 126 1.5 L 123.5 2 L 118.5 1 L 118.5 2 L 121 2.5 L 118.5 3 L 113.5 2 L 113.5 3 L 115 3.5 L 113.5 4 Q 112.3 1.8 107.5 3 L 107.5 4 L 110 4.5 L 107.5 5 L 102.5 4 L 102.5 5 L 105 5.5 L 102.5 6 L 97.5 5 L 97.5 6 L 99 6.5 L 97.5 7 Q 96.3 4.7 91.5 6 L 91.5 7 L 94 7.5 L 91.5 8 L 86.5 7 L 86.5 8 L 89 8.5 L 86.5 9 L 81.5 8 L 81.5 9 L 83 9.5 L 81.5 10 Q 80.3 7.8 75.5 9 L 75.5 10 L 78 10.5 L 75.5 11 L 70.5 10 L 70.5 11 L 73 11.5 L 70.5 12 L 65.5 11 L 65.5 12 L 67 12.5 L 65.5 13 Q 64.3 10.8 59.5 12 L 59.5 13 L 62 13.5 L 59.5 14 L 54.5 13 L 54.5 14 L 57 14.5 L 54.5 15 L 49.5 14 L 49.5 15 L 51 15.5 L 49.5 16 Q 48.3 13.7 43.5 15 L 43.5 16 L 46 16.5 L 43.5 17 L 38.5 16 L 38.5 17 L 41 17.5 L 38.5 18 L 33.5 17 L 33.5 18 L 35 18.5 L 33.5 19 Q 32.2 16.8 27.5 18 L 27.5 19 L 30 19.5 L 27.5 20 L 22.5 19 L 22.5 20 L 25 20.5 L 22.5 21 L 17.5 20 L 17.5 21 L 19 21.5 L 17.5 22 Q 16.3 19.8 11.5 21 L 11.5 22 L 14 22.5 L 11.5 23 L 6.5 22 L 6.5 23 L 9 23.5 L 6.5 24 L 4.5 23 L 4.5 25 L 3 24.5 L 1.5 27 Q -2 25 2.5 23 L 11.5 20 L 16.5 20 L 118.5 0 Z " /><path fill="rgb(4,91,224)" stroke="rgb(4,91,224)" stroke-width="1" opacity="0.03529411764705882" d="M 141 0 L 145 2.5 L 147 6.5 L 147 45 L 249.5 45 L 256 49.5 Q 254.5 52.5 253 49.5 L 253.5 48 L 251.5 49 L 251.5 47 L 249.5 48 L 144 48 L 144 6.5 L 145 4.5 L 143 4.5 L 144 2.5 L 141 1.5 L 141 0 Z M 146 6 L 145 47 L 146 47 L 146 6 Z M 148 46 L 148 47 L 250 47 L 148 46 Z " /><path fill="rgb(4,91,224)" stroke="rgb(4,91,224)" stroke-width="1" opacity="0.03529411764705882" d="M 144 64 L 221.5 64 L 222.5 65 L 224 64.5 L 221 65.5 L 218.5 69 Q 217.3 66.8 216 69.5 L 213.5 73 L 212 72.5 L 209.5 76 Q 208.3 73.8 207 76.5 L 204.5 80 L 203 79.5 L 200.5 83 Q 199.3 80.8 198 83.5 L 195.5 87 L 194 86.5 L 191.5 90 Q 190.3 87.8 189 90.5 L 186.5 94 L 185 93.5 L 182.5 97 Q 181.3 94.8 180 97.5 L 177.5 101 L 176 100.5 L 175.5 102 L 174.5 100 L 173 100.5 L 173.5 99 L 171.5 100 L 169.5 97 Q 168.3 99.2 167 96.5 L 166.5 95 Q 165.3 97.3 164 94.5 L 163.5 93 L 162 93.5 L 162.5 92 L 160.5 93 L 159.5 91 L 161.5 91 L 176.5 99 L 216 67.5 L 147 67 L 147 81.5 L 148.5 82 L 148.5 83 L 146.5 84 L 144 81.5 L 144 64 Z M 146 65 L 145 82 L 146 82 L 146 65 Z M 148 65 L 148 66 L 220 66 L 148 65 Z " /><path fill="rgb(4,91,224)" stroke="rgb(4,91,224)" stroke-width="1" opacity="0.03529411764705882" d="M 239.5 73 L 240 176 L 144 176 L 144 102 L 146 102.5 L 145 103.5 L 145 174.5 L 146 174.5 L 146 106.5 L 147 105.5 Q 144.8 104.3 147.5 103 L 149.5 106 Q 150.8 103.8 152 106.5 L 152.5 108 Q 153.8 105.8 155 108.5 L 155.5 110 L 157 109.5 L 156.5 111 L 158.5 110 L 160.5 113 Q 161.7 110.8 163 113.5 L 163.5 115 Q 164.8 112.8 166 115.5 L 166.5 117 L 168 116.5 L 167.5 118 L 169.5 117 L 171.5 120 L 173 119.5 L 172.5 121 L 177.5 120 L 179.5 121 L 179.5 119 L 181 119.5 L 183.5 116 L 185 116.5 L 187.5 113 Q 188.8 115.2 190 112.5 L 192.5 109 L 194 109.5 L 196.5 106 Q 197.8 108.3 199 105.5 L 201.5 102 L 203 102.5 L 205.5 99 Q 206.7 101.2 208 98.5 L 210.5 95 L 212 95.5 L 214.5 92 Q 215.8 94.3 217 91.5 L 219.5 88 L 221 88.5 L 223.5 85 Q 224.8 87.3 226 84.5 L 228.5 81 L 230 81.5 L 232.5 78 Q 233.7 80.3 235 77.5 L 237.5 74 L 238 76.5 L 238.5 175 L 239.5 73 Z M 237 78 L 178 123 Q 173 124 172 121 Q 169 122 170 119 L 169 119 L 149 107 L 147 107 L 147 173 L 237 173 L 237 78 Z M 175 121 L 175 122 L 178 122 L 175 121 Z M 148 174 L 148 175 L 237 175 L 148 174 Z " /><path fill="rgb(4,91,224)" stroke="rgb(4,91,224)" stroke-width="1" opacity="0.03529411764705882" d="M 148.5 84 L 150.5 84 L 160 89.5 L 157.5 91 L 155.5 88 Q 154.3 90.2 153 87.5 L 152.5 86 L 151 86.5 L 151.5 85 L 149.5 86 L 148.5 84 Z " /><path fill="rgb(4,91,224)" stroke="rgb(4,91,224)" stroke-width="1" opacity="0.03529411764705882" d="M 254.5 189 Q 258 191 253.5 193 L 249.5 195 L 147 195 L 147 233.5 L 141.5 241 L 134.5 243 L 128.5 241 L 123.5 241 L 112.5 238 L 107.5 238 L 96.5 235 L 91.5 235 L 80.5 232 L 75.5 232 L 64.5 229 L 59.5 229 L 48.5 226 L 43.5 226 L 32.5 223 L 6.5 219 L 0 214.5 Q 1.5 211.5 3 214.5 L 3.5 216 L 5 215.5 L 4.5 217 L 8.5 216 L 8.5 217 L 6 217.5 L 10.5 218 L 13.5 217 L 13.5 218 L 11 218.5 L 16.5 219 L 18.5 218 L 18.5 219 L 17 219.5 L 21.5 220 L 24.5 219 L 24.5 220 L 22 220.5 L 26.5 221 L 29.5 220 L 29.5 221 L 27 221.5 L 32.5 222 L 34.5 221 L 34.5 222 L 33 222.5 L 37.5 223 L 40.5 222 L 40.5 223 L 38 223.5 L 42.5 224 L 45.5 223 L 45.5 224 L 43 224.5 L 48.5 225 L 50.5 224 L 50.5 225 L 49 225.5 L 53.5 226 L 56.5 225 L 56.5 226 L 54 226.5 L 58.5 227 L 61.5 226 L 61.5 227 L 59 227.5 L 64.5 228 L 66.5 227 L 66.5 228 L 65 228.5 L 69.5 229 L 72.5 228 L 72.5 229 L 70 229.5 L 74.5 230 L 77.5 229 L 77.5 230 L 75 230.5 L 80.5 231 L 82.5 230 L 82.5 231 L 81 231.5 L 85.5 232 L 88.5 231 L 88.5 232 L 86 232.5 L 90.5 233 L 93.5 232 L 93.5 233 L 91 233.5 L 96.5 234 L 98.5 233 L 98.5 234 L 97 234.5 L 101.5 235 L 104.5 234 L 104.5 235 L 102 235.5 L 106.5 236 L 109.5 235 L 109.5 236 L 107 236.5 L 112.5 237 L 114.5 236 L 114.5 237 L 113 237.5 L 117.5 238 L 120.5 237 L 120.5 238 L 118 238.5 L 122.5 239 L 125.5 238 L 125.5 239 L 123 239.5 L 128.5 240 L 130.5 239 L 130.5 240 L 129 240.5 L 133.5 241 L 137.5 240 L 139.5 241 L 139.5 239 L 141 239.5 L 142.5 237 L 144 237.5 L 143 235.5 L 145 235.5 L 144 233.5 L 144 192 L 249.5 192 L 251.5 193 L 251.5 191 L 253.5 192 L 254.5 189 Z M 146 193 L 145 234 L 146 234 L 146 193 Z M 148 193 L 148 194 L 250 194 L 148 193 Z M 135 241 L 135 242 L 138 242 L 135 241 Z " /><path fill="rgb(213,233,249)" stroke="rgb(213,233,249)" stroke-width="1" opacity="1" d="M 66.5 80 L 71 80.5 L 66.5 81 L 66.5 80 Z " /><path fill="rgb(213,233,249)" stroke="rgb(213,233,249)" stroke-width="1" opacity="1" d="M 73.5 80 L 78 80.5 L 73.5 81 L 73.5 80 Z " /><path fill="rgb(213,233,249)" stroke="rgb(213,233,249)" stroke-width="1" opacity="1" d="M 53.5 85 L 52.5 87 L 53.5 85 Z " /><path fill="rgb(213,233,249)" stroke="rgb(213,233,249)" stroke-width="1" opacity="1" d="M 90.5 85 L 91.5 87 L 90.5 85 Z " /><path fill="rgb(213,233,249)" stroke="rgb(213,233,249)" stroke-width="1" opacity="1" d="M 50.5 87 L 43.5 95 L 50.5 87 Z " /><path fill="rgb(213,233,249)" stroke="rgb(213,233,249)" stroke-width="1" opacity="1" d="M 93.5 87 L 100.5 95 L 93.5 87 Z " /><path fill="rgb(213,233,249)" stroke="rgb(213,233,249)" stroke-width="1" opacity="1" d="M 41.5 97 L 40.5 99 L 41.5 97 Z " /><path fill="rgb(213,233,249)" stroke="rgb(213,233,249)" stroke-width="1" opacity="1" d="M 102.5 97 L 103.5 99 L 102.5 97 Z " /><path fill="rgb(213,233,249)" stroke="rgb(213,233,249)" stroke-width="1" opacity="1" d="M 60.5 99 L 54.5 106 L 60.5 99 Z " /><path fill="rgb(213,233,249)" stroke="rgb(213,233,249)" stroke-width="1" opacity="1" d="M 83.5 99 L 89.5 106 L 83.5 99 Z " /><path fill="rgb(213,233,249)" stroke="rgb(213,233,249)" stroke-width="1" opacity="1" d="M 53.5 107 L 53 108.5 L 51.5 112 L 51 110.5 L 53.5 107 Z " /><path fill="rgb(213,233,249)" stroke="rgb(213,233,249)" stroke-width="1" opacity="1" d="M 90.5 107 L 93 111.5 L 92 111.5 L 90.5 107 Z " /><path fill="rgb(213,233,249)" stroke="rgb(213,233,249)" stroke-width="1" opacity="1" d="M 48.5 119 L 49 121.5 L 48 121.5 L 48.5 119 Z " /><path fill="rgb(213,233,249)" stroke="rgb(213,233,249)" stroke-width="1" opacity="1" d="M 95.5 119 L 96 121.5 L 95 121.5 L 95.5 119 Z " /><path fill="rgb(213,233,249)" stroke="rgb(213,233,249)" stroke-width="1" opacity="1" d="M 32.5 120 L 33 125.5 L 32 125.5 L 32.5 120 Z " /><path fill="rgb(213,233,249)" stroke="rgb(213,233,249)" stroke-width="1" opacity="1" d="M 111.5 120 L 112 125.5 L 111 125.5 L 111.5 120 Z " /><path fill="rgb(213,233,249)" stroke="rgb(213,233,249)" stroke-width="1" opacity="1" d="M 32.5 130 L 33 135.5 L 32 135.5 L 32.5 130 Z " /><path fill="rgb(213,233,249)" stroke="rgb(213,233,249)" stroke-width="1" opacity="1" d="M 111.5 130 L 112 135.5 L 111 135.5 L 111.5 130 Z " /><path fill="rgb(213,233,249)" stroke="rgb(213,233,249)" stroke-width="1" opacity="1" d="M 48.5 134 L 49 136.5 L 48 136.5 L 48.5 134 Z " /><path fill="rgb(213,233,249)" stroke="rgb(213,233,249)" stroke-width="1" opacity="1" d="M 95.5 134 L 96 136.5 L 95 136.5 L 95.5 134 Z " /><path fill="rgb(213,233,249)" stroke="rgb(213,233,249)" stroke-width="1" opacity="1" d="M 51.5 144 L 54 148.5 L 52 147.5 L 51.5 144 Z " /><path fill="rgb(213,233,249)" stroke="rgb(213,233,249)" stroke-width="1" opacity="1" d="M 92.5 144 L 93 145.5 L 90.5 149 L 91 147.5 L 92.5 144 Z " /><path fill="rgb(213,233,249)" stroke="rgb(213,233,249)" stroke-width="1" opacity="1" d="M 54.5 150 L 60.5 157 L 54.5 150 Z " /><path fill="rgb(213,233,249)" stroke="rgb(213,233,249)" stroke-width="1" opacity="1" d="M 89.5 150 L 83.5 157 L 89.5 150 Z " /><path fill="rgb(213,233,249)" stroke="rgb(213,233,249)" stroke-width="1" opacity="1" d="M 40.5 157 L 41.5 159 L 40.5 157 Z " /><path fill="rgb(213,233,249)" stroke="rgb(213,233,249)" stroke-width="1" opacity="1" d="M 103.5 157 L 102.5 159 L 103.5 157 Z " /><path fill="rgb(213,233,249)" stroke="rgb(213,233,249)" stroke-width="1" opacity="1" d="M 43.5 161 L 50.5 169 L 43.5 161 Z " /><path fill="rgb(213,233,249)" stroke="rgb(213,233,249)" stroke-width="1" opacity="1" d="M 100.5 161 L 93.5 169 L 100.5 161 Z " /><path fill="rgb(213,233,249)" stroke="rgb(213,233,249)" stroke-width="1" opacity="1" d="M 52.5 169 L 53.5 171 L 52.5 169 Z " /><path fill="rgb(213,233,249)" stroke="rgb(213,233,249)" stroke-width="1" opacity="1" d="M 91.5 169 L 90.5 171 L 91.5 169 Z " /><path fill="rgb(213,233,249)" stroke="rgb(213,233,249)" stroke-width="1" opacity="1" d="M 66.5 175 L 71 175.5 L 66.5 176 L 66.5 175 Z " /><path fill="rgb(213,233,249)" stroke="rgb(213,233,249)" stroke-width="1" opacity="1" d="M 73.5 175 L 78 175.5 L 73.5 176 L 73.5 175 Z " /><path fill="rgb(0,0,0)" stroke="rgb(0,0,0)" stroke-width="1" opacity="0" d="M 0 0 L 117.5 0 L 122.5 1 Q 123.7 -1.3 128.5 0 L 128.5 1 L 123.5 1 L 80.5 10 L 43.5 16 L 16.5 22 L 11.5 22 L 3.5 25 L 3.5 23 L 1 24.5 L 1 26.5 L 0.5 28 L 0 26.5 L 0 24.5 L 0 0 Z M 114 1 L 114 2 L 118 2 L 114 1 Z M 108 2 L 108 3 L 113 3 L 108 2 Z M 103 3 L 103 4 L 107 4 L 103 3 Z M 98 4 L 98 5 L 102 5 L 98 4 Z M 92 5 L 92 6 L 97 6 L 92 5 Z M 87 6 L 87 7 L 91 7 L 87 6 Z M 82 7 L 82 8 L 86 8 L 82 7 Z M 76 8 L 76 9 L 81 9 L 76 8 Z M 71 9 L 71 10 L 75 10 L 71 9 Z M 66 10 L 66 11 L 70 11 L 66 10 Z M 60 11 L 60 12 L 65 12 L 60 11 Z M 55 12 L 55 13 L 59 13 L 55 12 Z M 50 13 L 50 14 L 54 14 L 50 13 Z M 44 14 L 44 15 L 49 15 L 44 14 Z M 39 15 L 39 16 L 43 16 L 39 15 Z M 34 16 L 34 17 L 38 17 L 34 16 Z M 28 17 L 28 18 L 33 18 L 28 17 Z M 23 18 L 23 19 L 27 19 L 23 18 Z M 18 19 L 18 20 L 22 20 L 18 19 Z M 12 20 L 12 21 L 17 21 L 12 20 Z M 7 21 L 7 22 L 11 22 L 7 21 Z " /><path fill="rgb(0,0,0)" stroke="rgb(0,0,0)" stroke-width="1" opacity="0" d="M 143.5 0 L 256 0 L 256 48.5 L 256 50.5 L 255.5 52 L 253.5 49 L 249.5 47 L 147 46.5 L 250 45.5 L 147 45 L 146.5 6 L 145.5 47 L 145 6.5 L 142 1.5 L 143.5 0 Z " /><path fill="rgb(0,0,0)" stroke="rgb(0,0,0)" stroke-width="1" opacity="0" d="M 222.5 64 L 221.5 66 L 222.5 64 Z " /><path fill="rgb(0,0,0)" stroke="rgb(0,0,0)" stroke-width="1" opacity="0" d="M 145.5 65 L 146.5 82 L 147 67 L 216 67.5 L 212.5 73 L 212.5 71 L 209 73.5 Q 211.8 75.3 207.5 77 L 208.5 74 L 205 76.5 Q 207.7 78.3 203.5 80 L 203.5 78 L 201 79.5 L 202 80.5 L 198.5 84 L 199.5 81 L 196 83.5 Q 198.8 85.3 194.5 87 L 194.5 85 L 192 86.5 L 193 87.5 L 189.5 91 L 190.5 88 L 187 90.5 Q 189.8 92.2 185.5 94 L 185.5 92 L 183 93.5 L 184 94.5 L 180.5 98 L 181.5 95 L 178 97.5 Q 180.7 99.2 176.5 101 L 176.5 99 L 174 99.5 L 174.5 101 L 171 98.5 L 172.5 99 L 174 98.5 L 169.5 96 L 169.5 98 L 168.5 95 L 166.5 96 L 164.5 92 L 163 92.5 L 163.5 94 L 157 89.5 L 157.5 88 L 155.5 89 L 153.5 85 L 152 85.5 L 152.5 87 L 145 81.5 L 145.5 65 Z " /><path fill="rgb(0,0,0)" stroke="rgb(0,0,0)" stroke-width="1" opacity="0" d="M 147.5 65 L 220 65.5 L 147.5 66 L 147.5 65 Z " /><path fill="rgb(0,0,0)" stroke="rgb(0,0,0)" stroke-width="1" opacity="0" d="M 218.5 67 L 216.5 70 L 218.5 67 Z " /><path fill="rgb(0,0,0)" stroke="rgb(0,0,0)" stroke-width="1" opacity="0" d="M 238.5 74 L 239 174.5 L 238 174.5 L 237.5 76 L 236 76.5 L 238.5 74 Z " /><path fill="rgb(0,0,0)" stroke="rgb(0,0,0)" stroke-width="1" opacity="0" d="M 234.5 77 L 233.5 80 L 236.5 78 L 237 173 L 147 173 L 147 106.5 L 146 106.5 L 145.5 175 L 145 103 L 148 104.5 Q 145.8 105.8 148.5 107 L 150 106.5 L 149.5 105 L 150.5 108 L 152.5 107 L 154.5 111 L 156 110.5 L 155.5 109 L 159 111.5 L 157.5 111 L 156 111.5 L 160.5 114 L 160.5 112 L 161.5 115 L 163.5 114 L 165.5 118 L 167 117.5 L 166.5 116 L 170 118.5 Q 168.9 121.8 171.5 121 L 171.5 119 Q 172.9 121.6 177.5 121 L 180.5 119 L 182.5 120 Q 180.8 118 184.5 116 L 184.5 118 L 187 116.5 L 186 115.5 L 189.5 112 L 188.5 115 L 192 112.5 Q 189.2 110.7 193.5 109 L 193.5 111 L 196 109.5 L 195 108.5 L 198.5 105 L 197.5 108 L 201 105.5 Q 198.2 103.8 202.5 102 L 202.5 104 L 205 102.5 L 204 101.5 L 207.5 98 L 206.5 101 L 210 98.5 Q 207.3 96.8 211.5 95 L 211.5 97 L 214 95.5 L 213 94.5 L 216.5 91 L 215.5 94 L 219 91.5 Q 216.3 89.8 220.5 88 L 220.5 90 L 224 87.5 Q 221.2 85.8 225.5 84 L 224.5 87 L 228 84.5 Q 225.3 82.7 229.5 81 L 229.5 83 L 233 80.5 Q 230.3 78.8 234.5 77 Z M 175 122 L 175 123 L 178 123 L 175 122 Z " /><path fill="rgb(0,0,0)" stroke="rgb(0,0,0)" stroke-width="1" opacity="0" d="M 147.5 174 L 237 174.5 L 147.5 175 L 147.5 174 Z " /><path fill="rgb(0,0,0)" stroke="rgb(0,0,0)" stroke-width="1" opacity="0" d="M 255.5 188 L 256 189.5 L 256 191.5 L 256 255.5 L 255.5 256 L 0 256 L 0 215.5 L 1 214.5 L 0 212.5 L 1 212.5 L 2 214.5 Q -0.3 215.8 2.5 217 L 4 216.5 L 3.5 215 L 11.5 218 L 16.5 218 L 27.5 221 L 32.5 221 L 43.5 224 L 48.5 224 L 59.5 227 L 64.5 227 L 75.5 230 L 80.5 230 L 91.5 233 L 96.5 233 L 107.5 236 L 112.5 236 L 137.5 241 L 140.5 239 L 140.5 241 L 143 239.5 L 143 237.5 L 145 233.5 L 145.5 193 L 146.5 234 L 147 195 L 250 194.5 L 147 193.5 L 249.5 193 L 255 189.5 L 255.5 188 Z M 7 218 L 7 219 L 11 219 L 7 218 Z M 12 219 L 12 220 L 17 220 L 12 219 Z M 18 220 L 18 221 L 22 221 L 18 220 Z M 23 221 L 23 222 L 27 222 L 23 221 Z M 28 222 L 28 223 L 33 223 L 28 222 Z M 34 223 L 34 224 L 38 224 L 34 223 Z M 39 224 L 39 225 L 43 225 L 39 224 Z M 44 225 L 44 226 L 49 226 L 44 225 Z M 50 226 L 50 227 L 54 227 L 50 226 Z M 55 227 L 55 228 L 59 228 L 55 227 Z M 60 228 L 60 229 L 65 229 L 60 228 Z M 66 229 L 66 230 L 70 230 L 66 229 Z M 71 230 L 71 231 L 75 231 L 71 230 Z M 76 231 L 76 232 L 81 232 L 76 231 Z M 82 232 L 82 233 L 86 233 L 82 232 Z M 87 233 L 87 234 L 91 234 L 87 233 Z M 92 234 L 92 235 L 97 235 L 92 234 Z M 98 235 L 98 236 L 102 236 L 98 235 Z M 103 236 L 103 237 L 107 237 L 103 236 Z M 108 237 L 108 238 L 113 238 L 108 237 Z M 114 238 L 114 239 L 118 239 L 114 238 Z M 119 239 L 119 240 L 123 240 L 119 239 Z M 124 240 L 124 241 L 129 241 L 124 240 Z M 130 241 L 130 242 L 134 242 L 130 241 Z M 135 242 L 135 243 L 138 243 L 135 242 Z " /><path fill="rgb(250,250,250)" stroke="rgb(250,250,250)" stroke-width="1" opacity="1" d="M 71.5 80 Q 92.9 82.1 102 96.5 L 110 113.5 L 112 129.5 L 111 130.5 L 111 138.5 L 108 148.5 Q 102.9 161.4 92.5 169 L 85.5 173 L 71.5 176 Q 70 173.5 64.5 175 L 54.5 171 L 42 159.5 L 34 142.5 L 32 126.5 L 33 125.5 L 33 117.5 L 36 107.5 Q 41.1 94.6 51.5 87 L 58.5 83 L 71.5 80 Z M 67 96 L 61 99 Q 51 106 48 120 L 48 137 L 54 151 Q 58 157 67 160 Q 78 162 84 157 Q 93 150 96 137 L 96 120 L 90 106 Q 86 99 78 96 L 67 96 Z " /></svg>