<?xml version="1.0" encoding="UTF-8"?>
<svg version="1.1" xmlns="http://www.w3.org/2000/svg" width="225" height="225">
<path d="M0 0 C74.25 0 148.5 0 225 0 C225 74.25 225 148.5 225 225 C150.75 225 76.5 225 0 225 C0 150.75 0 76.5 0 0 Z " fill="#FEFEFE" transform="translate(0,0)"/>
<path d="M0 0 C5.62540111 2.79593833 10.35628946 6.4670885 15.25 10.375 C21.6064274 15.38726736 28.02749746 20.2853453 34.5625 25.0625 C43.47407506 31.58122903 52.25531471 38.25953836 61 45 C67.4699467 40.80910659 73.64473576 36.32821539 79.75 31.625 C81.59504724 30.21223326 83.44009947 28.79947304 85.28515625 27.38671875 C87.19016972 25.92456457 89.09511721 24.46232443 91 23 C94.72673656 20.14264409 98.45647447 17.28925211 102.1875 14.4375 C103.44095215 13.47481201 103.44095215 13.47481201 104.71972656 12.49267578 C107.13520226 10.6461424 109.56295112 8.81795296 112 7 C112.87519287 6.34314209 113.75038574 5.68628418 114.65209961 5.00952148 C115.52229736 4.37473877 116.39249512 3.73995605 117.2890625 3.0859375 C118.06846191 2.51278809 118.84786133 1.93963867 119.65087891 1.34912109 C123.70360283 -0.97839422 127.52792982 -1.19854477 132 0 C136.77071905 2.68077374 139.36699995 5.78568627 141 11 C141.29527511 14.1257114 141.28349581 17.23887467 141.2746582 20.37670898 C141.27976913 21.31389771 141.28488007 22.25108643 141.29014587 23.2166748 C141.30402831 26.30987969 141.30308615 29.40286144 141.30078125 32.49609375 C141.3046688 34.64933861 141.30900359 36.8025827 141.31376648 38.95582581 C141.32122571 43.46740201 141.32093945 47.97889995 141.31567383 52.49047852 C141.30987838 58.26863816 141.32681363 64.04647735 141.3500185 69.82458401 C141.36475797 74.27099985 141.36562726 78.71733854 141.36250877 83.16377449 C141.36302183 85.29400327 141.36825673 87.42423638 141.37832069 89.55444145 C141.39067224 92.53447104 141.38390097 95.5138767 141.37231445 98.49389648 C141.37995819 99.37149124 141.38760193 100.249086 141.39547729 101.15327454 C141.35256852 106.15231601 140.94943887 109.76972863 138 114 C132 118 132 118 105 118 C104.67 97.87 104.34 77.74 104 57 C98.06 61.62 92.12 66.24 86 71 C82.59415155 73.56138466 79.1894096 76.11088289 75.75 78.625 C74.97527344 79.19605469 74.20054688 79.76710938 73.40234375 80.35546875 C69.33230826 83.34385937 65.22810431 86.23961343 61 89 C60.55422607 88.64921387 60.10845215 88.29842773 59.64916992 87.93701172 C50.13413723 80.46203884 40.53420381 73.12991064 30.77172852 65.98095703 C24.09835729 61.0895891 17.53552794 56.0738546 11 51 C8.83510143 49.33103116 6.66746285 47.66563647 4.5 46 C3.43097769 45.17709878 2.36196729 44.35418209 1.29296875 43.53125 C-1.01388994 41.75642233 -3.32436178 39.9864075 -5.63671875 38.21875 C-6.23097656 37.76371094 -6.82523438 37.30867188 -7.4375 36.83984375 C-8.57851442 35.96625458 -9.72040086 35.09380284 -10.86328125 34.22265625 C-16.9134487 29.58622139 -16.9134487 29.58622139 -17.29052734 27.03222656 C-17.33979216 24.43761272 -17.37132419 21.84511855 -17.375 19.25 C-17.39949219 18.35539062 -17.42398438 17.46078125 -17.44921875 16.5390625 C-17.48036434 9.5001582 -16.01070125 6.34522361 -11.3125 1.125 C-7.64654912 -0.65843556 -3.97802126 -0.7857056 0 0 Z " fill="#E94334" transform="translate(51,54)"/>
<path d="M0 0 C0.33 0 0.66 0 1 0 C0.94457031 1.19496094 0.88914063 2.38992187 0.83203125 3.62109375 C0.54499994 12.65533277 0.54499994 12.65533277 3.91796875 20.7421875 C6.24682711 22.60950207 8.61353883 24.25389352 11.15771484 25.81298828 C14.88368062 28.21368343 18.31501372 31.03255317 21.8125 33.75 C23.85080174 35.29636898 25.89101605 36.84014983 27.93286133 38.38183594 C28.61501709 38.91583008 29.29717285 39.44982422 30 40 C31.05872314 40.5973999 32.11744629 41.1947998 33.20825195 41.81030273 C35.51090236 43.76171365 35.96848014 44.82807301 36.52101135 47.84188843 C36.69653329 51.58723732 36.6748883 55.30496055 36.5859375 59.05078125 C36.57473808 60.43367163 36.56620141 61.81658591 36.56021118 63.19950867 C36.53737008 66.82840425 36.47849241 70.45584449 36.4119873 74.08416748 C36.35045994 77.79093743 36.32317417 81.49794404 36.29296875 85.20507812 C36.22874044 92.4707135 36.12642328 99.73515236 36 107 C31.62522526 107.11651725 27.25085173 107.18736 22.875 107.25 C21.6375 107.28351563 20.4 107.31703125 19.125 107.3515625 C8.84017832 107.46215198 8.84017832 107.46215198 5.3203125 105.359375 C0.7468777 100.70894635 -0.34167423 96.4120932 -0.3732605 90.09773254 C-0.36247467 89.21228256 -0.35168884 88.32683258 -0.34057617 87.41455078 C-0.34101425 86.46757828 -0.34145233 85.52060577 -0.34190369 84.54493713 C-0.33982079 81.42818275 -0.31651298 78.31197243 -0.29296875 75.1953125 C-0.28737103 73.02912693 -0.28310176 70.86293756 -0.28010559 68.69674683 C-0.26867074 63.00522307 -0.23921504 57.31393028 -0.20599365 51.62249756 C-0.17526358 45.81086348 -0.16159396 39.99919196 -0.14648438 34.1875 C-0.11434422 22.79156539 -0.06316413 11.39580193 0 0 Z " fill="#4586F3" transform="translate(33,65)"/>
<path d="M0 0 C0.33 0 0.66 0 1 0 C1.06952592 12.5435693 1.12282458 25.08709272 1.15543652 37.63081551 C1.171089 43.45544366 1.19231994 49.27993993 1.22631836 55.10449219 C1.25892626 60.72603527 1.27685616 66.34745152 1.28463173 71.96908188 C1.29017263 74.11327994 1.30099263 76.2574711 1.31719017 78.40161514 C1.33898315 81.40607934 1.3419661 84.4100202 1.34057617 87.41455078 C1.351362 88.30000076 1.36214783 89.18545074 1.3732605 90.09773254 C1.34167423 96.4120932 0.2531223 100.70894635 -4.3203125 105.359375 C-9.46613924 108.43350526 -16.11856427 107.40590347 -21.875 107.25 C-23.13570312 107.23195313 -24.39640625 107.21390625 -25.6953125 107.1953125 C-28.79765614 107.14830729 -31.8984338 107.08260676 -35 107 C-35.2793708 99.08945633 -35.49189469 91.18100638 -35.62174606 83.26673317 C-35.68410752 79.59058804 -35.76849257 75.91784102 -35.90527344 72.24365234 C-36.03671814 68.69012148 -36.10761115 65.1398326 -36.13852692 61.58405685 C-36.17114934 59.58356217 -36.26467676 57.58435558 -36.35955811 55.58584595 C-36.36367975 49.94464282 -36.2198219 46.42524115 -32.46618652 42.03948975 C-29.50902327 39.40385669 -26.2902285 37.20252493 -23 35 C-20.91925338 33.46053796 -18.8684224 31.8852478 -16.8125 30.3125 C-15.83152344 29.58804688 -14.85054687 28.86359375 -13.83984375 28.1171875 C-10.41051602 25.56052226 -7.06956852 22.90234381 -3.7421875 20.21484375 C-2 19 -2 19 0 19 C0 12.73 0 6.46 0 0 Z " fill="#37A955" transform="translate(191,65)"/>
<path d="M0 0 C4.13960347 0.88146131 6.87700917 3.26001526 9.4765625 6.52734375 C11.91620225 13.84626299 12.13172997 23.01012482 10.4765625 30.52734375 C7.24588037 34.9467804 3.22600191 36.94589621 -1.5234375 39.52734375 C-3.81989923 41.15268434 -6.0119618 42.89830966 -8.2109375 44.65234375 C-9.29168448 45.48734198 -10.37369066 46.32071328 -11.45703125 47.15234375 C-14.95843789 49.86426125 -18.44219204 52.59803622 -21.9140625 55.34765625 C-23.5234375 56.52734375 -23.5234375 56.52734375 -24.5234375 56.52734375 C-24.96532979 50.57058984 -25.32444941 44.61644968 -25.60986328 38.65014648 C-25.71812171 36.62474439 -25.84834657 34.60038631 -26.00146484 32.57788086 C-27.215231 16.25634318 -27.215231 16.25634318 -24.42504883 11.7555542 C-21.31741715 8.44413666 -17.54426903 6.51599381 -13.5234375 4.52734375 C-11.91988403 3.45166138 -11.91988403 3.45166138 -10.28393555 2.35424805 C-6.64075084 -0.05682042 -4.2608128 -0.16090683 0 0 Z " fill="#FABC04" transform="translate(180.5234375,53.47265625)"/>
<path d="M0 0 C2.79965371 1.1924451 4.57910295 2.27229805 7 4 C8.35436157 4.71446289 8.35436157 4.71446289 9.73608398 5.44335938 C13.93829826 8.06360861 17.3075571 10.33881637 18.58361816 15.24295044 C19.39413421 21.83553602 19.00012497 28.44696947 18.6875 35.0625 C18.63226354 37.09296647 18.58208384 39.12357718 18.53710938 41.15429688 C18.41647367 46.10645083 18.22704774 51.05162953 18 56 C17.45671555 55.59243469 16.91343109 55.18486938 16.35368347 54.76495361 C15.63779556 54.22795837 14.92190765 53.69096313 14.18432617 53.13769531 C13.47604172 52.60638 12.76775726 52.0750647 12.03800964 51.52764893 C10.37680673 50.28244635 8.71402459 49.03935082 7.05078125 47.796875 C1.63550446 43.74893629 -3.75890699 39.67537968 -9.125 35.5625 C-9.68147217 35.13743164 -10.23794434 34.71236328 -10.8112793 34.27441406 C-16.9138533 29.58348099 -16.9138533 29.58348099 -17.29052734 27.03222656 C-17.33979216 24.43761272 -17.37132419 21.84511855 -17.375 19.25 C-17.39949219 18.35539062 -17.42398438 17.46078125 -17.44921875 16.5390625 C-17.48036434 9.5001582 -16.01070125 6.34522361 -11.3125 1.125 C-7.573037 -0.69419821 -4.07046979 -0.59839385 0 0 Z " fill="#C4211E" transform="translate(51,54)"/>
</svg>
